<?xml version="1.0" standalone="no"?>
<!DOCTYPE svg PUBLIC "-//W3C//DTD SVG 20010904//EN"
 "http://www.w3.org/TR/2001/REC-SVG-20010904/DTD/svg10.dtd">
<svg version="1.0" class="icon" xmlns="http://www.w3.org/2000/svg"
 width="2000.000000pt" height="2000.000000pt" viewBox="0 0 2000.000000 2000.000000"
 preserveAspectRatio="xMidYMid meet">

<g transform="translate(0.000000,2000.000000) scale(0.100000,-0.100000)"
fill="#000000" stroke="none">
<path d="M8581 18619 c-88 -17 -171 -85 -191 -157 -18 -62 -28 -267 -25 -467
3 -135 -6 -359 -31 -770 -18 -319 -70 -1187 -114 -1930 -44 -742 -94 -1579
-110 -1860 -17 -280 -34 -555 -38 -610 l-7 -100 -80 2 c-44 1 -1671 147 -3615
323 -2407 219 -3554 320 -3595 316 -122 -12 -221 -89 -252 -195 -19 -68 -8
-131 36 -195 20 -29 292 -247 902 -723 2486 -1937 4390 -3421 4424 -3449 l38
-30 -248 -525 c-136 -288 -346 -731 -465 -984 -120 -253 -509 -1076 -865
-1830 -356 -753 -825 -1746 -1042 -2205 -217 -459 -401 -861 -410 -894 -26
-103 12 -193 102 -236 67 -33 171 -26 251 16 51 27 964 632 5568 3691 467 310
855 563 862 561 7 -2 253 -293 546 -648 530 -642 2271 -2746 2633 -3184 105
-126 207 -243 228 -260 52 -41 136 -48 201 -16 58 28 121 98 140 158 10 29 66
545 146 1327 72 704 187 1831 256 2505 68 674 134 1315 145 1425 27 270 18
245 89 245 33 0 174 -7 313 -15 138 -9 927 -54 1752 -100 825 -47 1817 -104
2205 -126 388 -22 737 -39 777 -37 92 4 145 37 186 117 45 89 34 182 -28 244
-15 15 -267 204 -559 421 -292 216 -776 574 -1076 796 -916 679 -2052 1520
-2510 1859 -283 210 -435 328 -434 339 0 9 346 618 769 1352 422 734 957 1664
1188 2065 231 402 605 1052 832 1445 226 393 463 805 526 914 l114 200 0 77
c0 70 -3 81 -30 120 -17 24 -45 52 -64 62 -42 25 -124 26 -171 2 -19 -10 -120
-81 -225 -158 -104 -78 -539 -398 -965 -712 -426 -314 -914 -674 -1085 -800
-170 -126 -489 -361 -707 -522 -219 -161 -662 -488 -985 -726 -324 -239 -598
-440 -610 -448 -21 -13 -30 -5 -195 157 -95 93 -594 583 -1108 1089 -514 505
-1084 1065 -1265 1244 -473 467 -598 587 -800 771 -99 90 -198 181 -220 201
-22 21 -49 46 -61 56 -47 41 -213 193 -289 264 -44 42 -114 107 -155 145 -41
38 -131 124 -200 190 -241 234 -255 241 -399 213z m309 -708 c0 -13 -29 -35
-37 -28 -7 8 15 37 28 37 5 0 9 -4 9 -9z m972 -1216 c337 -335 1178 -1173
1868 -1861 893 -891 1268 -1258 1299 -1274 68 -34 152 -26 222 21 30 20 455
333 944 696 490 362 1257 931 1705 1262 448 332 821 608 828 614 7 5 15 8 17
5 4 -4 -765 -1339 -2358 -4093 -187 -324 -353 -615 -369 -645 -21 -41 -28 -70
-28 -113 0 -72 17 -112 66 -158 22 -20 287 -221 589 -446 1227 -913 3110
-2316 3114 -2319 20 -18 -6 -17 -1224 46 -2185 114 -2894 148 -2925 141 -97
-22 -169 -96 -190 -196 -9 -44 -133 -1159 -441 -3960 -49 -451 -92 -831 -95
-844 l-5 -24 -28 29 c-16 16 -194 236 -397 489 -391 489 -2127 2650 -2326
2897 -90 112 -129 151 -161 167 -55 27 -137 27 -194 2 -23 -11 -290 -187 -595
-392 -304 -205 -1048 -706 -1653 -1114 -605 -408 -1563 -1054 -2130 -1435
-566 -381 -1095 -738 -1175 -792 -80 -55 -146 -95 -148 -89 -3 10 111 243
1593 3256 1196 2432 1145 2325 1152 2383 8 70 -12 134 -56 182 -20 21 -945
758 -2056 1637 -1111 879 -2090 1654 -2175 1722 -85 67 -156 127 -158 132 -2
5 11 9 29 9 31 0 2067 -169 4879 -406 690 -58 1278 -103 1306 -101 108 11 202
92 227 198 6 25 25 249 242 2979 63 795 124 1562 136 1705 15 184 25 267 36
283 8 13 16 22 18 20 2 -1 280 -277 617 -613z"/>
</g>
</svg>
